<svg width="110" height="109" viewBox="0 0 110 109" fill="none" xmlns="http://www.w3.org/2000/svg">
<path d="M105.511 12.1739C102.998 9.66108 99.5493 8.4303 96.093 8.71516C95.6515 6.65641 94.6279 4.76713 93.099 3.2383C88.7812 -1.07933 81.7555 -1.07954 77.4374 3.2383C76.1398 4.53592 75.222 6.10606 74.7031 7.78734C63.4569 3.6213 50.6141 6.34026 42.0268 14.9276C39.1394 17.815 36.8869 21.1756 35.3315 24.9162C33.4522 29.4361 30.4769 33.4655 26.7271 36.5685C25.8212 37.3181 25.6945 38.6602 26.4441 39.5661C26.8653 40.075 27.4731 40.3379 28.0854 40.3379C28.5636 40.3379 29.0445 40.1776 29.4416 39.8491C33.7226 36.3062 37.119 31.7078 39.2629 26.5511C40.6033 23.3276 42.546 20.43 45.0376 17.9386C52.7099 10.2664 64.3202 8.02281 74.2584 12.1867C74.3497 13.1086 74.556 14.0238 74.8822 14.9091C72.7251 17.2301 71.5143 20.2782 71.5143 23.4917C71.5143 30.4495 77.1749 36.1101 84.1327 36.1101C87.7007 36.1101 91.0743 34.599 93.4494 31.9992C93.7518 32.0955 94.0566 32.1774 94.3628 32.2487C98.5659 42.2018 96.3277 53.8503 88.6385 61.5394C86.147 64.0307 83.2494 65.9737 80.0261 67.3139C73.4743 70.0382 67.9387 74.7198 64.1703 80.6638C62.1935 78.8065 59.5382 77.6655 56.6315 77.6655C51.1408 77.6655 46.5458 81.7355 45.7317 87.0174C41.4262 88.711 38.535 92.8683 38.535 97.6098C38.535 99.2364 38.8801 100.783 39.4973 102.184C38.5835 102.278 37.6704 102.326 36.7611 102.326C29.7537 102.325 22.9818 99.5721 17.9049 94.4951L12.0821 88.6723C1.66658 78.2567 1.66658 61.3097 12.0821 50.8941C12.4404 50.5358 12.8128 50.1837 13.1885 49.8477C14.0653 49.0643 14.1408 47.7183 13.3574 46.8416C12.5739 45.9649 11.2282 45.8893 10.3512 46.6728C9.91626 47.0615 9.48557 47.4688 9.07105 47.8831C3.22161 53.733 0 61.5104 0 69.7833C0 78.056 3.22161 85.8337 9.07126 91.6833L14.8939 97.5061C20.7808 103.393 28.63 106.585 36.7541 106.585C38.6018 106.585 40.4645 106.417 42.321 106.081C44.3389 107.894 47.005 109 49.9252 109C52.3778 109 54.6984 108.236 56.6317 106.819C58.5651 108.236 60.8855 109 63.3381 109C69.6187 109 74.7283 103.89 74.7283 97.61C74.7283 92.8685 71.8371 88.7112 67.5318 87.0176C67.3979 86.1483 67.1594 85.3129 66.8335 84.5222C70.1177 78.5648 75.3508 73.8697 81.6609 71.2462C85.4014 69.6909 88.762 67.4382 91.6496 64.5508C100.101 56.0991 102.866 43.522 98.9781 32.4044C101.397 32.012 103.695 30.8789 105.511 29.0629C110.167 24.4063 110.167 16.8303 105.511 12.1739ZM70.47 97.6098C70.47 101.542 67.2706 104.742 63.3379 104.742C61.3685 104.742 59.5346 103.954 58.1736 102.525C57.7718 102.102 57.2144 101.864 56.6315 101.864C56.0486 101.864 55.4914 102.102 55.0895 102.524C53.7282 103.954 51.8941 104.742 49.9249 104.742C45.9925 104.742 42.793 101.542 42.793 97.6096C42.793 94.3082 45.0308 91.4589 48.2351 90.681C49.1828 90.4508 49.8528 89.6067 49.8617 88.6316C49.8958 84.9327 52.9326 81.9233 56.6315 81.9233C60.3304 81.9233 63.3675 84.9327 63.4013 88.6316C63.4103 89.6067 64.0803 90.4508 65.0279 90.681C68.2322 91.4591 70.47 94.3084 70.47 97.6098ZM102.5 26.0516C100.183 28.3682 96.6476 28.9607 93.7028 27.5266C92.7569 27.0659 91.6162 27.3657 91.0183 28.2317C89.4542 30.4987 86.88 31.8523 84.1327 31.8523C79.5228 31.8523 75.7723 28.1019 75.7723 23.4919C75.7723 20.9936 76.8777 18.6453 78.8049 17.0494C79.5945 16.3955 79.8059 15.2719 79.3082 14.3758C77.8392 11.7315 78.308 8.38985 80.4483 6.24935C81.7774 4.92042 83.5225 4.25617 85.2683 4.25617C87.0137 4.25617 88.7595 4.92063 90.0882 6.24935C91.4067 7.56805 92.1146 9.3232 92.0811 11.192C92.069 11.8727 92.383 12.5182 92.9264 12.9287C93.4699 13.3391 94.1763 13.4654 94.828 13.2674C97.5514 12.4411 100.491 13.1761 102.5 15.1852C105.496 18.1807 105.496 23.0557 102.5 26.0516Z" fill="#F7D231"/>
<path d="M23.4012 57.4067C18.1483 57.4067 13.8745 61.6803 13.8745 66.9334C13.8745 72.1865 18.1481 76.4601 23.4012 76.4601C28.6543 76.4601 32.9278 72.1865 32.9278 66.9334C32.9278 61.6803 28.6541 57.4067 23.4012 57.4067ZM23.4012 72.202C20.4959 72.202 18.1325 69.8386 18.1325 66.9334C18.1325 64.0282 20.4959 61.6647 23.4012 61.6647C26.3064 61.6647 28.6698 64.0282 28.6698 66.9334C28.6698 69.8386 26.3062 72.202 23.4012 72.202Z" fill="#F7D231"/>
<path d="M85.4954 50.9033C85.4954 46.4424 81.8661 42.8131 77.4052 42.8131C72.9443 42.8131 69.3149 46.4424 69.3149 50.9033C69.3149 55.3642 72.9443 58.9935 77.4052 58.9935C81.8661 58.9935 85.4954 55.3642 85.4954 50.9033ZM73.573 50.9033C73.573 48.7903 75.2921 47.0711 77.4052 47.0711C79.5182 47.0711 81.2374 48.7903 81.2374 50.9033C81.2374 53.0164 79.5182 54.7355 77.4052 54.7355C75.2921 54.7355 73.573 53.0164 73.573 50.9033Z" fill="#F7D231"/>
<path d="M64.7849 27.9851C64.7849 24.2187 61.7207 21.1544 57.9542 21.1544C54.1878 21.1544 51.1235 24.2187 51.1235 27.9851C51.1235 31.7515 54.1878 34.8158 57.9542 34.8158C61.7207 34.8158 64.7849 31.7515 64.7849 27.9851ZM55.3813 27.9851C55.3813 26.5663 56.5355 25.4124 57.954 25.4124C59.3726 25.4124 60.5267 26.5666 60.5267 27.9851C60.5267 29.4037 59.3726 30.5578 57.954 30.5578C56.5355 30.5578 55.3813 29.4037 55.3813 27.9851Z" fill="#F7D231"/>
<path d="M42.4224 74.2756C42.8184 74.6716 43.3677 74.8994 43.9297 74.8994C44.4897 74.8994 45.0368 74.6716 45.4349 74.2756C45.8309 73.8796 46.0587 73.3304 46.0587 72.7704C46.0587 72.2084 45.8309 71.6613 45.4349 71.2653C45.0389 70.8672 44.4897 70.6415 43.9297 70.6415C43.3677 70.6415 42.8184 70.8672 42.4224 71.2653C42.0265 71.6613 41.8008 72.2084 41.8008 72.7704C41.8008 73.3304 42.0265 73.8796 42.4224 74.2756Z" fill="#F7D231"/>
<path d="M29.0816 86.8433C28.6856 87.2393 28.4578 87.7885 28.4578 88.3484C28.4578 88.9084 28.6856 89.4576 29.0816 89.8536C29.4775 90.2496 30.0268 90.4774 30.5867 90.4774C31.1466 90.4774 31.6959 90.2496 32.0919 89.8536C32.4879 89.4576 32.7157 88.9084 32.7157 88.3484C32.7157 87.7885 32.4879 87.2393 32.0919 86.8433C31.6959 86.4473 31.1466 86.2195 30.5867 86.2195C30.0268 86.2195 29.4775 86.4473 29.0816 86.8433Z" fill="#F7D231"/>
<path d="M42.0208 54.4973C42.0208 58.4887 45.2679 61.7359 49.2594 61.7359C53.2508 61.7359 56.498 58.4887 56.498 54.4973C56.498 50.5058 53.2508 47.2587 49.2594 47.2587C45.2679 47.2587 42.0208 50.5058 42.0208 54.4973ZM52.24 54.4973C52.24 56.1409 50.903 57.4779 49.2594 57.4779C47.6158 57.4779 46.2788 56.1409 46.2788 54.4973C46.2788 52.8537 47.6158 51.5167 49.2594 51.5167C50.903 51.5167 52.24 52.8537 52.24 54.4973Z" fill="#F7D231"/>
<path d="M20.5098 29.5175C25.4795 29.5175 29.5225 25.4743 29.5225 20.5048C29.5225 15.5353 25.4793 11.4921 20.5098 11.4921C15.5403 11.4921 11.4971 15.5353 11.4971 20.5048C11.4971 25.4745 15.5403 29.5175 20.5098 29.5175ZM20.5098 15.7501C23.1317 15.7501 25.2645 17.8831 25.2645 20.5048C25.2645 23.1266 23.1314 25.2595 20.5098 25.2595C17.8881 25.2595 15.7551 23.1264 15.7551 20.5048C15.7551 17.8829 17.8879 15.7501 20.5098 15.7501Z" fill="#F7D231"/>
<path d="M21.3834 44.659C21.7794 44.2631 22.0072 43.7138 22.0072 43.1539C22.0072 42.5939 21.7794 42.0447 21.3834 41.6487C20.9874 41.2527 20.4381 41.0249 19.8782 41.0249C19.3162 41.0249 18.769 41.2527 18.3709 41.6487C17.9749 42.0447 17.7493 42.5939 17.7493 43.1539C17.7493 43.7138 17.9749 44.2631 18.3709 44.659C18.769 45.055 19.3162 45.2828 19.8782 45.2828C20.4381 45.2828 20.9853 45.055 21.3834 44.659Z" fill="#F7D231"/>
</svg>
