<svg width="124" height="117" viewBox="0 0 124 117" fill="none" xmlns="http://www.w3.org/2000/svg">
<path d="M119.522 103.235H71.766C70.2769 99.23 66.2673 96.3529 61.5645 96.3529C56.8618 96.3529 52.8522 99.23 51.3631 103.235H36.073C27.654 103.235 20.0157 98.4885 16.4897 91.3779C19.5797 89.5582 21.6438 86.2994 21.6438 82.5882C21.6438 78.877 19.5797 75.6182 16.4897 73.7986C20.0157 66.6879 27.654 61.9412 36.073 61.9412H51.3631C52.8522 65.9465 56.8618 68.8235 61.5645 68.8235C66.2673 68.8235 70.2769 65.9465 71.766 61.9412H87.0561C93.4139 61.9412 99.4441 60.0065 104.495 56.3467C108.658 53.3302 111.912 49.2318 113.85 44.6286C119.089 43.9117 123.129 39.6043 123.129 34.4118C123.129 29.2193 119.089 24.9118 113.85 24.1949C111.912 19.5915 108.658 15.4933 104.495 12.4768C99.4441 8.81698 93.4139 6.88235 87.0561 6.88235H71.766C70.2769 2.87705 66.2673 0 61.5645 0C56.8618 0 52.8522 2.87705 51.3631 6.88235H3.6073C1.61511 6.88235 0 8.42308 0 10.3235C0 12.224 1.61511 13.7647 3.6073 13.7647H51.3631C52.8522 17.77 56.8618 20.6471 61.5645 20.6471C66.2673 20.6471 70.2769 17.77 71.766 13.7647H87.0561C95.4751 13.7647 103.113 18.5115 106.639 25.6221C103.549 27.4418 101.485 30.7006 101.485 34.4118C101.485 38.123 103.549 41.3818 106.639 43.2014C103.113 50.3121 95.4751 55.0588 87.0561 55.0588H71.766C70.2769 51.0535 66.2673 48.1765 61.5645 48.1765C56.8618 48.1765 52.8522 51.0535 51.3631 55.0588H36.073C29.7152 55.0588 23.685 56.9935 18.6341 60.6533C14.471 63.6698 11.2175 67.7682 9.27869 72.3714C4.04017 73.0883 0 77.3957 0 82.5882C0 87.7807 4.04017 92.0882 9.27869 92.8051C11.2175 97.4085 14.471 101.507 18.6341 104.523C23.685 108.183 29.7152 110.118 36.073 110.118H51.3631C52.8522 114.123 56.8618 117 61.5645 117C66.2673 117 70.2769 114.123 71.766 110.118H119.522C121.514 110.118 123.129 108.577 123.129 106.676C123.129 104.776 121.514 103.235 119.522 103.235ZM61.5645 13.7647C59.5755 13.7647 57.9572 12.221 57.9572 10.3235C57.9572 8.42606 59.5755 6.88235 61.5645 6.88235C63.5536 6.88235 65.1718 8.42606 65.1718 10.3235C65.1718 12.221 63.5536 13.7647 61.5645 13.7647ZM115.914 34.4118C115.914 36.3092 114.296 37.8529 112.307 37.8529C110.318 37.8529 108.7 36.3092 108.7 34.4118C108.7 32.5143 110.318 30.9706 112.307 30.9706C114.296 30.9706 115.914 32.5143 115.914 34.4118ZM61.5645 55.0588C63.5536 55.0588 65.1718 56.6025 65.1718 58.5C65.1718 60.3975 63.5536 61.9412 61.5645 61.9412C59.5755 61.9412 57.9572 60.3975 57.9572 58.5C57.9572 56.6025 59.5755 55.0588 61.5645 55.0588ZM10.8219 79.1471C12.811 79.1471 14.4292 80.6908 14.4292 82.5882C14.4292 84.4857 12.811 86.0294 10.8219 86.0294C8.83283 86.0294 7.21459 84.4857 7.21459 82.5882C7.21459 80.6908 8.83283 79.1471 10.8219 79.1471ZM61.5645 110.118C59.5755 110.118 57.9572 108.574 57.9572 106.676C57.9572 104.779 59.5755 103.235 61.5645 103.235C63.5536 103.235 65.1718 104.779 65.1718 106.676C65.1718 108.574 63.5536 110.118 61.5645 110.118Z" fill="#F7D231"/>
</svg>
