<svg width="109" height="109" viewBox="0 0 109 109" fill="none" xmlns="http://www.w3.org/2000/svg">
<g clip-path="url(#clip0)">
<path d="M7.26697 41.7835L7.26697 67.2169L7.26696 103.55C7.26696 104.553 8.07893 105.367 9.08356 105.367C10.0882 105.367 10.9002 104.553 10.9002 103.55L10.9002 69.0335L78.117 69.0335C78.8436 69.0335 79.5012 68.6011 79.7864 67.9326L90.6864 42.4992C90.9281 41.9378 90.87 41.2947 90.5338 40.7844C90.1959 40.2739 89.6273 39.9669 89.017 39.9669L9.08356 39.9669C8.07893 39.9667 7.26697 40.7806 7.26697 41.7835ZM47.2336 43.6001L47.2336 65.4001L10.9002 65.4001L10.9002 43.6001L47.2336 43.6001ZM76.9197 65.4001L50.8667 65.4001L50.8667 43.6001L86.2611 43.6001L76.9197 65.4001Z" fill="#F7D231"/>
<path d="M14.5336 74.4835L14.5336 89.0169L14.5336 99.9169C14.5336 100.92 15.3456 101.734 16.3502 101.734C17.3549 101.734 18.1668 100.92 18.1668 99.9169L18.1668 90.8335L67.2168 90.8335C67.9053 90.8335 68.534 90.4448 68.8427 89.8289L76.1093 75.2955C76.389 74.7341 76.36 74.0637 76.0294 73.5279C75.6969 72.9937 75.1138 72.6667 74.4834 72.6667L16.35 72.6667C15.3456 72.6667 14.5336 73.4806 14.5336 74.4835ZM47.2336 76.3001L47.2336 87.2001L18.167 87.2001L18.167 76.3001L47.2336 76.3001ZM66.0943 87.2001L50.867 87.2001L50.867 76.3001L71.5443 76.3001L66.0943 87.2001Z" fill="#F7D231"/>
<path d="M3.63282 107.183L3.63283 36.3334L92.6494 36.3334C93.3688 36.3334 94.0175 35.9102 94.3098 35.2543L108.843 2.55426C109.092 1.99287 109.04 1.34249 108.707 0.826654C108.371 0.310607 107.799 -5.24665e-08 107.183 -7.93881e-08L1.81623 -4.68511e-06C0.8116 -4.72902e-06 -0.000358617 0.813876 -0.000358661 1.81659L-0.00036009 34.5166L-0.000363267 107.183C-0.00036331 108.186 0.811595 109 1.81623 109C2.82086 109 3.63282 108.186 3.63282 107.183ZM91.4704 32.7L50.866 32.7L50.866 3.6334L104.387 3.6334L91.4704 32.7ZM47.2328 3.6334L47.2328 32.7L3.63283 32.7L3.63283 3.6334L47.2328 3.6334Z" fill="#F7D231"/>
</g>
<defs>
<clipPath id="clip0">
<rect width="109" height="109" fill="white" transform="translate(109) rotate(90)"/>
</clipPath>
</defs>
</svg>
