<svg width="50" height="50" viewBox="0 0 50 50" fill="none" xmlns="http://www.w3.org/2000/svg">
<g clip-path="url(#clip0)">
<path d="M49.9511 14.7001C49.834 12.0434 49.4044 10.217 48.7889 8.63435C48.1541 6.95441 47.1773 5.45036 45.8976 4.20004C44.6473 2.93026 43.1333 1.94359 41.4728 1.31862C39.881 0.703186 38.0641 0.273567 35.4074 0.156433C32.7309 0.0293789 31.8812 0 25.0928 0C18.3043 0 17.4546 0.0293789 14.788 0.146513C12.1313 0.263647 10.3049 0.693647 8.72262 1.3087C7.0423 1.94359 5.53825 2.92034 4.28793 4.20004C3.01815 5.45036 2.03186 6.96433 1.40651 8.62481C0.791076 10.217 0.361458 12.0335 0.244324 14.6902C0.117269 17.3668 0.0878906 18.2164 0.0878906 25.0049C0.0878906 31.7933 0.117269 32.643 0.234404 35.3096C0.351538 37.9663 0.781538 39.7928 1.39697 41.3754C2.03186 43.0554 3.01815 44.5594 4.28793 45.8097C5.53825 47.0795 7.05222 48.0662 8.7127 48.6912C10.3049 49.3066 12.1214 49.7362 14.7785 49.8533C17.4447 49.9709 18.2948 49.9998 25.0832 49.9998C31.8717 49.9998 32.7214 49.9709 35.388 49.8533C38.0447 49.7362 39.8711 49.3066 41.4534 48.6912C44.8136 47.392 47.4703 44.7353 48.7695 41.3754C49.3845 39.7832 49.8145 37.9663 49.9317 35.3096C50.0488 32.643 50.0782 31.7933 50.0782 25.0049C50.0782 18.2164 50.0683 17.3668 49.9511 14.7001ZM45.4485 35.1143C45.3409 37.5562 44.9308 38.8748 44.5889 39.7539C43.7487 41.9321 42.02 43.6609 39.8417 44.501C38.9627 44.8429 37.6345 45.2531 35.2022 45.3603C32.5649 45.4778 31.774 45.5068 25.1027 45.5068C18.4314 45.5068 17.6305 45.4778 15.0028 45.3603C12.5609 45.2531 11.2423 44.8429 10.3633 44.501C9.27929 44.1004 8.29261 43.4655 7.49175 42.6353C6.66151 41.8245 6.02662 40.8477 5.626 39.7638C5.28414 38.8847 4.87398 37.5562 4.76677 35.1242C4.64925 32.487 4.62025 31.6956 4.62025 25.0243C4.62025 18.353 4.64925 17.5522 4.76677 14.9249C4.87398 12.483 5.28414 11.1644 5.626 10.2853C6.02662 9.20094 6.66151 8.21465 7.50167 7.4134C8.31207 6.58316 9.28883 5.94828 10.3732 5.54804C11.2523 5.20617 12.5808 4.79601 15.0128 4.68842C17.65 4.57128 18.4413 4.5419 25.1122 4.5419C31.7934 4.5419 32.5844 4.57128 35.2121 4.68842C37.654 4.79601 38.9726 5.20617 39.8517 5.54804C40.9356 5.94828 41.9223 6.58316 42.7232 7.4134C43.5534 8.22419 44.1883 9.20094 44.5889 10.2853C44.9308 11.1644 45.3409 12.4925 45.4485 14.9249C45.5657 17.5621 45.595 18.353 45.595 25.0243C45.595 31.6956 45.5657 32.477 45.4485 35.1143Z" fill="black" fill-opacity="0.8"/>
<path d="M25.0926 12.1606C18.0016 12.1606 12.2483 17.9136 12.2483 25.0049C12.2483 32.0963 18.0016 37.8493 25.0926 37.8493C32.184 37.8493 37.9369 32.0963 37.9369 25.0049C37.9369 17.9136 32.184 12.1606 25.0926 12.1606ZM25.0926 33.3367C20.4923 33.3367 16.7608 29.6056 16.7608 25.0049C16.7608 20.4043 20.4923 16.6732 25.0926 16.6732C29.6933 16.6732 33.4244 20.4043 33.4244 25.0049C33.4244 29.6056 29.6933 33.3367 25.0926 33.3367Z" fill="black" fill-opacity="0.8"/>
<path d="M41.4438 11.6526C41.4438 13.3085 40.1011 14.6512 38.4448 14.6512C36.7889 14.6512 35.4463 13.3085 35.4463 11.6526C35.4463 9.99633 36.7889 8.65405 38.4448 8.65405C40.1011 8.65405 41.4438 9.99633 41.4438 11.6526Z" fill="black" fill-opacity="0.8"/>
</g>
<defs>
<clipPath id="clip0">
<rect width="50" height="50" fill="white"/>
</clipPath>
</defs>
</svg>
