<svg width="2833" height="2833" viewBox="0 0 2833 2833" fill="none" xmlns="http://www.w3.org/2000/svg">
<path d="M2181.6 2180.48C2332.73 2029.13 2435.58 1836.37 2477.15 1626.57C2518.72 1416.77 2497.14 1199.36 2415.15 1001.82C2333.16 804.281 2194.43 635.493 2016.51 516.799C1838.59 398.105 1629.47 334.837 1415.59 334.994C1201.71 335.151 992.68 398.727 814.934 517.683C637.188 636.638 498.708 805.63 417.006 1003.29C335.303 1200.95 314.048 1418.39 355.928 1628.13C397.808 1837.87 500.942 2030.48 652.288 2181.6L1416.38 1416.38L2181.6 2180.48Z" fill="#F7D231"/>
<path fill-rule="evenodd" clip-rule="evenodd" d="M1628.54 1841.29L1628.62 1841.21L1416.57 1629L547 2497.93L759.055 2710.14L1416.33 2053.34L2073.09 2710.1L2285.23 2497.97L1628.54 1841.29Z" fill="black"/>
</svg>
