<svg width="50" height="50" viewBox="0 0 50 50" fill="none" xmlns="http://www.w3.org/2000/svg">
<path fill-rule="evenodd" clip-rule="evenodd" d="M41.5811 8.35018C37.1957 3.95966 31.3635 1.54066 25.1502 1.53809C12.3471 1.53809 1.92728 11.9576 1.92213 24.7642C1.92041 28.858 2.98986 32.8543 5.02262 36.3768L1.72729 48.4131L14.0408 45.183C17.4337 47.0338 21.2535 48.0091 25.1408 48.0103H25.1505C37.9521 48.0103 48.3731 37.5898 48.378 24.7828C48.3806 18.576 45.9667 12.7404 41.5811 8.35018ZM25.1502 44.0875H25.1422C21.6781 44.0861 18.2806 43.1551 15.316 41.3964L14.6113 40.9779L7.30429 42.8947L9.25464 35.7705L8.79545 35.0401C6.86283 31.9662 5.8423 28.4134 5.84402 24.7656C5.84803 14.1212 14.5089 5.46112 25.1579 5.46112C30.3146 5.46284 35.1621 7.47356 38.807 11.1228C42.4519 14.772 44.4581 19.6226 44.4564 24.7813C44.4518 35.4266 35.7915 44.0875 25.1502 44.0875ZM35.74 29.6282C35.1598 29.3375 32.3062 27.9339 31.774 27.7399C31.2425 27.5462 30.8551 27.4498 30.4686 28.0306C30.0815 28.6114 28.9694 29.9189 28.6306 30.306C28.2919 30.6933 27.9537 30.742 27.3732 30.4513C26.7927 30.1609 24.9227 29.5478 22.7057 27.5705C20.9805 26.0316 19.8158 24.131 19.4771 23.5502C19.1389 22.9689 19.4742 22.685 19.7317 22.3658C20.36 21.5856 20.9891 20.7676 21.1825 20.3805C21.3762 19.9931 21.2792 19.6541 21.1339 19.3637C20.9891 19.0733 19.8284 16.2166 19.3449 15.0541C18.8734 13.9229 18.3953 14.0757 18.0388 14.0579C17.7007 14.041 17.3136 14.0376 16.9265 14.0376C16.5397 14.0376 15.9108 14.1827 15.3787 14.764C14.8468 15.3451 13.3476 16.749 13.3476 19.6057C13.3476 22.4625 15.4273 25.2222 15.7174 25.6096C16.0075 25.997 19.8101 31.8592 25.632 34.3729C27.0167 34.9714 28.0976 35.3282 28.9408 35.5957C30.3312 36.0374 31.5961 35.9751 32.5963 35.8257C33.7115 35.6589 36.0298 34.4215 36.5139 33.066C36.9974 31.7101 36.9974 30.5483 36.8521 30.306C36.7073 30.0639 36.3202 29.9189 35.74 29.6282Z" fill="black" fill-opacity="0.8"/>
</svg>
